<svg width="340" height="88" viewBox="0 0 340 88" fill="none" xmlns="http://www.w3.org/2000/svg">
<g clip-path="url(#clip0_807_2808)">
<rect width="340" height="88" rx="10" fill="#0C0C0E"/>
<g opacity="0.5" clip-path="url(#clip1_807_2808)">
<g style="mix-blend-mode:screen">
<path d="M5.71201 53.3584H5.25301V60.7004H2.66901V74.0104H5.25301V77.0388H5.71201V74.0104H8.29601V60.7004H5.71201V53.3584Z" fill="#3D2A0F"/>
</g>
<g style="mix-blend-mode:screen">
<path d="M13.192 53.3584H12.716V56.6822H10.149V66.89H12.716V77.0388H13.192V66.89H15.759V56.6822H13.192V53.3584Z" fill="#3D2A0F"/>
</g>
<g style="mix-blend-mode:screen">
<path d="M20.655 41.5256H20.196V42.737H17.612V57.3618H20.196V65.1912H20.655V57.3618H23.239V42.737H20.655V41.5256Z" fill="#3D2A0F"/>
</g>
<g style="mix-blend-mode:screen">
<path d="M28.135 25.202H27.659V36.0746H25.092V42.737H27.659V56.2095H28.135V42.737H30.702V36.0746H28.135V25.202Z" fill="#3D2A0F"/>
</g>
<g style="mix-blend-mode:screen">
<path d="M35.598 17.0327H35.122V21.0952H32.555V30.6825H35.122V44.2585H35.598V30.6825H38.165V21.0952H35.598V17.0327Z" fill="#3D2A0F"/>
</g>
<g style="mix-blend-mode:screen">
<path d="M43.061 17.3134H42.602V19.6622H40.018V24.3156H42.602V40.979H43.061V24.3156H45.645V19.6622H43.061V17.3134Z" fill="#1C1308"/>
</g>
<g style="mix-blend-mode:screen">
<path d="M50.541 0H50.065V2.71815H47.498V25.9997H50.065V36.0745H50.541V25.9997H53.108V2.71815H50.541V0Z" fill="#3D2A0F"/>
</g>
<g style="mix-blend-mode:screen">
<path d="M58.004 1.52155H57.528V7.32715H54.961V20.6372H57.528V23.3406H58.004V20.6372H60.571V7.32715H58.004V1.52155Z" fill="#1C1308"/>
</g>
<g style="mix-blend-mode:screen">
<path d="M65.467 7.09082H65.008V16.1021H62.424V40.1813H65.008V44.2438H65.467V40.1813H68.051V16.1021H65.467V7.09082Z" fill="#1C1308"/>
</g>
<g style="mix-blend-mode:screen">
<path d="M72.947 31.628H72.471V33.0609H69.904V40.1813H72.471V58.2629H72.947V40.1813H75.514V33.0609H72.947V31.628Z" fill="#3D2A0F"/>
</g>
<g style="mix-blend-mode:screen">
<path d="M80.41 24.7883H79.934V26.3985H77.367V37.0052H79.934V54.422H80.41V37.0052H82.977V26.3985H80.41V24.7883Z" fill="#3D2A0F"/>
</g>
<g style="mix-blend-mode:screen">
<path d="M87.873 17.9338H87.414V26.3985H84.847V35.1291H87.414V41.5994H87.873V35.1291H90.457V26.3985H87.873V17.9338Z" fill="#1C1308"/>
</g>
<g style="mix-blend-mode:screen">
<path d="M95.353 23.2963H94.877V30.6382H92.31V34.0507H94.877V46.9619H95.353V34.0507H97.92V30.6382H95.353V23.2963Z" fill="#3D2A0F"/>
</g>
<g style="mix-blend-mode:screen">
<path d="M102.816 15.2305H102.357V29.4712H99.773V30.8007H102.357V31.628H102.816V30.8007H105.4V29.4712H102.816V15.2305Z" fill="#3D2A0F"/>
</g>
<g style="mix-blend-mode:screen">
<path d="M110.296 27.7724H109.82V30.3428H107.253V35.1291H109.82V47.9665H110.296V35.1291H112.863V30.3428H110.296V27.7724Z" fill="#1C1308"/>
</g>
<g style="mix-blend-mode:screen">
<path d="M222.326 35.3655H221.85V36.5916H219.283V43.254H221.85V51.0244H222.326V43.254H224.893V36.5916H222.326V35.3655Z" fill="#3D2A0F"/>
</g>
<g style="mix-blend-mode:screen">
<path d="M229.789 33.1052H229.33V35.6018H226.746V43.8449H229.33V47.6119H229.789V43.8449H232.373V35.6018H229.789V33.1052Z" fill="#1C1308"/>
</g>
<g style="mix-blend-mode:screen">
<path d="M237.269 39.4722H236.793V42.8256H234.226V57.8345H236.793V62.2367H237.269V57.8345H239.836V42.8256H237.269V39.4722Z" fill="#1C1308"/>
</g>
<g style="mix-blend-mode:screen">
<path d="M244.732 42.2051H244.273V43.2835H241.689V57.9674H244.273V60.0356H244.732V57.9674H247.316V43.2835H244.732V42.2051Z" fill="#3D2A0F"/>
</g>
<g style="mix-blend-mode:screen">
<path d="M252.195 40.1517H251.736V45.2335H249.169V46.3267H251.736V48.2766H252.195V46.3267H254.779V45.2335H252.195V40.1517Z" fill="#3D2A0F"/>
</g>
<g style="mix-blend-mode:screen">
<path d="M259.675 25.0247H259.199V36.1188H256.632V49.4289H259.199V50.655H259.675V49.4289H262.242V36.1188H259.675V25.0247Z" fill="#3D2A0F"/>
</g>
<g style="mix-blend-mode:screen">
<path d="M267.138 35.4246H266.679V39.945H264.095V41.6143H266.679V44.879H267.138V41.6143H269.722V39.945H267.138V35.4246Z" fill="#3D2A0F"/>
</g>
<g style="mix-blend-mode:screen">
<path d="M274.142 12.5714H273.683V14.3737H271.099V44.1551H273.683V45.0858H274.142V44.1551H276.726V14.3737H274.142V12.5714Z" fill="#3D2A0F"/>
</g>
<g style="mix-blend-mode:screen">
<path d="M281.554 0.517029H281.078V11.3601H278.511V16.7668H281.078V32.4109H281.554V16.7668H284.121V11.3601H281.554V0.517029Z" fill="#1C1308"/>
</g>
<g style="mix-blend-mode:screen">
<path d="M289.017 7.07605H288.558V15.4373H285.974V16.7668H288.558V21.6713H289.017V16.7668H291.601V15.4373H289.017V7.07605Z" fill="#3D2A0F"/>
</g>
<g style="mix-blend-mode:screen">
<path d="M296.497 12.2908H296.021V15.0089H293.454V26.561H296.021V38.7484H296.497V26.561H299.064V15.0089H296.497V12.2908Z" fill="#1C1308"/>
</g>
<g style="mix-blend-mode:screen">
<path d="M303.96 18.9236H303.501V28.0826H300.917V38.4973H303.501V41.6143H303.96V38.4973H306.544V28.0826H303.96V18.9236Z" fill="#1C1308"/>
</g>
<g style="mix-blend-mode:screen">
<path d="M311.423 34.4791H310.964V37.5666H308.397V63.064H310.964V88H311.423V63.064H314.007V37.5666H311.423V34.4791Z" fill="#1C1308"/>
</g>
<g style="mix-blend-mode:screen">
<path d="M318.903 52.4573H318.427V61.956H315.86V66.6094H318.427V76.1229H318.903V66.6094H321.47V61.956H318.903V52.4573Z" fill="#1C1308"/>
</g>
<g style="mix-blend-mode:screen">
<path d="M326.366 47.9664H325.907V51.5709H323.323V59.7992H325.907V79.1956H326.366V59.7992H328.95V51.5709H326.366V47.9664Z" fill="#3D2A0F"/>
</g>
<g style="mix-blend-mode:screen">
<path d="M333.846 53.3289H333.37V54.7322H330.803V71.957H333.37V73.8184H333.846V71.957H336.413V54.7322H333.846V53.3289Z" fill="#1C1308"/>
</g>
<g style="mix-blend-mode:screen">
<path d="M340 62.3549C336.039 54.0232 331.874 45.6324 326.502 39.4574C313.514 24.5076 295.069 24.4929 281.877 27.0928C275.888 28.3892 269.981 29.9573 264.18 31.7905C254.983 34.5234 245.48 37.3598 235.943 37.8029C227.732 38.1722 219.266 36.8132 211.072 35.4984C196.112 33.1053 180.642 30.6235 166.702 38.837C164.014 40.5062 161.437 42.3064 158.984 44.229C154.632 47.5233 150.127 50.9209 145.248 52.2652C135.048 55.0425 125.035 48.7789 115.328 42.7074L112.404 40.8904C97.4224 31.4935 80.535 24.6373 62.628 20.6816C54.4 18.8498 44.795 17.7271 36.72 23.1043C30.09 27.536 25.262 35.6018 20.587 43.4608C18.53 46.9324 16.405 50.5073 14.144 53.7277C10.047 59.6367 4.913 63.8174 0 65.6196V65.9151C5.1 64.1276 10.2 59.814 14.416 53.8755C16.677 50.655 18.819 47.0653 20.876 43.5347C25.534 35.7052 30.328 27.6099 36.924 23.2668C44.88 18.052 54.4 19.2043 62.56 20.9031C80.4249 24.867 97.2671 31.7285 112.2 41.1267C113.186 41.7176 114.155 42.3233 115.124 42.9438C124.882 49.0448 134.98 55.3675 145.316 52.5311C150.28 51.1721 154.802 47.7596 159.171 44.4506C161.611 42.5313 164.177 40.736 166.855 39.0734C180.693 30.9189 196.095 33.3859 211.055 35.7791C219.3 37.0938 227.8 38.4086 235.96 38.0836C245.531 37.6404 255.068 34.8041 264.282 32.0564C270.075 30.2212 275.976 28.658 281.962 27.3735C295.052 24.7736 313.361 24.7883 326.162 39.6199C331.636 45.9278 335.869 54.5698 339.915 63.0787L340 62.3549Z" fill="#4A3413"/>
</g>
<g style="mix-blend-mode:screen">
<path d="M340 40.0188C331.723 39.8671 323.479 40.9719 315.639 43.2835C310.879 44.5835 306.068 46.1494 301.41 47.7153C289.51 51.5562 277.406 55.5448 265.149 55.5448H264.112C260.848 55.5448 257.516 55.1311 254.303 54.7914C249.403 54.1065 244.43 53.9083 239.479 54.2005C233.138 54.8061 226.882 57.0368 220.779 59.2083C216.223 60.9735 211.51 62.416 206.686 63.5219C191.675 66.5651 176.392 62.414 161.636 58.4106C149.6 55.072 137.054 51.7039 124.661 52.1618C112.761 52.6346 100.861 56.7118 89.42 60.6708C82.926 62.9015 76.194 65.2208 69.53 66.8605C46.512 72.4889 22.95 70.3912 0 67.7173V67.9537C12.333 69.5715 24.7761 70.4746 37.247 70.6571C48.1519 70.7661 59.0217 69.5631 69.547 67.0821C76.3044 65.3071 82.9543 63.2363 89.471 60.8776C100.895 56.9481 112.693 52.8709 124.61 52.3982C125.403 52.3982 126.202 52.3982 127.007 52.3982C138.567 52.3982 150.195 55.5595 161.466 58.6322C176.273 62.6503 191.59 66.8162 206.686 63.7583C211.583 62.6452 216.37 61.1928 221 59.4152C227.018 57.2436 233.257 54.9834 239.547 54.422C244.476 54.1305 249.426 54.3288 254.303 55.0129C257.516 55.3527 260.848 55.7073 264.146 55.7663H265.2C277.508 55.7663 289.731 51.7778 301.58 47.9221C306.221 46.4449 311.032 44.8347 315.775 43.4904C323.577 41.2168 331.773 40.1371 340 40.2995V40.0188Z" fill="#241A0A"/>
</g>
</g>
<g filter="url(#filter0_f_807_2808)">
<ellipse cx="10.3594" cy="94.9756" rx="39.8438" ry="40.2439" fill="#C5B05E"/>
</g>
<g filter="url(#filter1_f_807_2808)">
<ellipse cx="271.469" cy="54.7317" rx="26.5625" ry="26.8293" fill="#C5B05E"/>
</g>
</g>
<defs>
<filter id="filter0_f_807_2808" x="-329.484" y="-245.268" width="679.688" height="680.488" filterUnits="userSpaceOnUse" color-interpolation-filters="sRGB">
<feFlood flood-opacity="0" result="BackgroundImageFix"/>
<feBlend mode="normal" in="SourceGraphic" in2="BackgroundImageFix" result="shape"/>
<feGaussianBlur stdDeviation="150" result="effect1_foregroundBlur_807_2808"/>
</filter>
<filter id="filter1_f_807_2808" x="44.9062" y="-172.098" width="453.125" height="453.659" filterUnits="userSpaceOnUse" color-interpolation-filters="sRGB">
<feFlood flood-opacity="0" result="BackgroundImageFix"/>
<feBlend mode="normal" in="SourceGraphic" in2="BackgroundImageFix" result="shape"/>
<feGaussianBlur stdDeviation="100" result="effect1_foregroundBlur_807_2808"/>
</filter>
<clipPath id="clip0_807_2808">
<rect width="340" height="88" rx="10" fill="white"/>
</clipPath>
<clipPath id="clip1_807_2808">
<rect width="340" height="88" fill="white"/>
</clipPath>
</defs>
</svg>
