<svg width="240" height="308" viewBox="0 0 240 308" fill="none" xmlns="http://www.w3.org/2000/svg">
<g filter="url(#filter0_d_502_40)">
<path d="M116 214L97.9956 188.278L169.991 85.426L152.009 59.722H79.9913L62.0087 85.426L79.9913 111.148L97.9956 85.426H134.004L79.9913 162.574L26 85.426L62.0087 34H169.991L206 85.426L116 214Z" fill="url(#paint0_linear_502_40)"/>
<path d="M52.7662 260.57C53.1218 260.57 54.1492 259.859 55.8483 258.437C57.5475 256.976 58.6144 255.949 59.0491 255.356V273.368C59.0491 274.751 58.7132 276.035 58.0414 277.22C57.3697 278.405 56.4411 279.372 55.2556 280.123C54.1097 280.834 52.8452 281.189 51.4622 281.189C50.0001 281.189 48.6764 280.834 47.4909 280.123C46.3055 279.412 45.3571 278.464 44.6458 277.279C43.9741 276.054 43.6382 274.751 43.6382 273.368V247.535C43.6382 246.153 43.9741 244.869 44.6458 243.684C45.3571 242.46 46.3055 241.492 47.4909 240.781C48.6764 240.07 50.0001 239.714 51.4622 239.714C53.0428 239.714 54.4851 240.188 55.7891 241.136C57.0931 242.084 58.081 243.348 58.7527 244.928L54.0702 250.142V247.535C54.0702 246.864 53.7936 246.271 53.2404 245.758C52.7267 245.205 52.1339 244.928 51.4622 244.928C50.7114 244.928 50.0791 245.205 49.5654 245.758C49.0913 246.271 48.8542 246.864 48.8542 247.535V273.368C48.8542 274.04 49.0913 274.652 49.5654 275.205C50.0791 275.719 50.7114 275.975 51.4622 275.975C52.1339 275.975 52.7267 275.699 53.2404 275.146C53.7936 274.593 54.0702 274 54.0702 273.368V260.57H52.7662Z" fill="white"/>
<path d="M84.6294 239.714C86.0124 239.714 87.2967 240.07 88.4821 240.781C89.7071 241.452 90.6752 242.381 91.3865 243.566C92.1373 244.751 92.5126 246.074 92.5126 247.535V281.189H87.2374V257.963H82.0214V281.189H76.8054V239.714H84.6294ZM87.2374 247.535C87.2374 246.785 86.9608 246.173 86.4076 245.699C85.8939 245.185 85.3011 244.928 84.6294 244.928H82.0214V252.749H87.2374V247.535Z" fill="white"/>
<path d="M119.092 244.691V275.916L113.817 281.189V244.691H108.838V239.714H124.308V244.691H119.092Z" fill="white"/>
<path d="M156.3 281.189H140.593V239.714H156.3L151.025 244.928H145.809V255.416H151.025V260.63H145.809V275.975H151.025L156.3 281.189Z" fill="white"/>
<path d="M183.383 247.298C183.383 246.627 183.107 246.034 182.553 245.521C182.04 244.968 181.447 244.691 180.775 244.691C180.024 244.691 179.392 244.968 178.878 245.521C178.404 246.034 178.167 246.627 178.167 247.298V255.179C178.167 255.692 178.464 256.206 179.056 256.719C179.689 257.193 180.696 257.865 182.079 258.734C184.055 259.919 185.596 261.005 186.702 261.992C187.809 262.98 188.362 264.125 188.362 265.429V273.309C188.362 274.692 188.026 275.995 187.354 277.22C186.683 278.405 185.754 279.372 184.569 280.123C183.423 280.834 182.158 281.189 180.775 281.189C179.313 281.189 177.97 280.834 176.745 280.123C175.559 279.372 174.611 278.405 173.9 277.22C173.228 275.995 172.892 274.692 172.892 273.309V270.702H178.167V273.309C178.167 273.981 178.404 274.593 178.878 275.146C179.392 275.659 180.024 275.916 180.775 275.916C181.447 275.916 182.04 275.64 182.553 275.087C183.107 274.534 183.383 273.941 183.383 273.309V265.429C183.383 264.876 183.047 264.343 182.376 263.829C181.743 263.316 180.716 262.664 179.293 261.874C177.199 260.689 175.599 259.622 174.492 258.674C173.425 257.687 172.892 256.522 172.892 255.179V247.298C172.892 245.916 173.228 244.652 173.9 243.506C174.611 242.361 175.559 241.452 176.745 240.781C177.97 240.07 179.313 239.714 180.775 239.714C182.158 239.714 183.423 240.07 184.569 240.781C185.754 241.452 186.683 242.381 187.354 243.566C188.026 244.711 188.362 245.955 188.362 247.298V249.965H183.383V247.298Z" fill="white"/>
</g>
<defs>
<filter id="filter0_d_502_40" x="0" y="0" width="240" height="308.143" filterUnits="userSpaceOnUse" color-interpolation-filters="sRGB">
<feFlood flood-opacity="0" result="BackgroundImageFix"/>
<feColorMatrix in="SourceAlpha" type="matrix" values="0 0 0 0 0 0 0 0 0 0 0 0 0 0 0 0 0 0 127 0" result="hardAlpha"/>
<feOffset dx="4" dy="-4"/>
<feGaussianBlur stdDeviation="15"/>
<feComposite in2="hardAlpha" operator="out"/>
<feColorMatrix type="matrix" values="0 0 0 0 0 0 0 0 0 0 0 0 0 0 0 0 0 0 0.6 0"/>
<feBlend mode="normal" in2="BackgroundImageFix" result="effect1_dropShadow_502_40"/>
<feBlend mode="normal" in="SourceGraphic" in2="effect1_dropShadow_502_40" result="shape"/>
</filter>
<linearGradient id="paint0_linear_502_40" x1="116" y1="34" x2="116" y2="214" gradientUnits="userSpaceOnUse">
<stop stop-color="#C5B05E"/>
<stop offset="1" stop-color="#E7D7AD"/>
</linearGradient>
</defs>
</svg>
