<svg width="52" height="48" viewBox="0 0 52 48" fill="none" xmlns="http://www.w3.org/2000/svg">
<g opacity="0.4">
<path d="M16.3137 41.6532C16.2297 41.6532 16.2297 41.738 16.1458 41.738C15.8939 41.738 15.726 41.5684 15.726 41.314C15.726 41.0596 15.8939 40.89 16.1458 40.89C16.3976 40.89 16.5656 41.0596 16.5656 41.314C16.5656 41.3988 16.5656 41.4836 16.4816 41.5684L17.3212 42.4164H18.4126L20.7634 40.042L20.9313 40.2116L18.4966 42.6708H17.1533L16.3137 41.6532Z" fill="url(#paint0_linear_807_2893)"/>
<path d="M12.7035 37.8372H11.3602L10.6885 37.1588C10.6046 37.1588 10.5206 37.2436 10.5206 37.2436C10.2688 37.2436 10.1008 37.074 10.1008 36.8196C10.1008 36.5652 10.2688 36.3956 10.5206 36.3956C10.7725 36.3956 10.9404 36.5652 10.9404 36.8196C10.9404 36.9044 10.9404 36.9892 10.8565 36.9892L11.4442 37.5828H12.4516L10.1008 35.2084V34.0212C9.93293 33.9364 9.76501 33.7668 9.76501 33.5972C9.76501 33.3428 9.93293 33.1732 10.1848 33.1732C10.4367 33.1732 10.6046 33.3428 10.6046 33.5972C10.6046 33.7668 10.4367 33.9364 10.2688 34.0212V35.0388L12.7035 37.498L14.8025 39.618L16.6495 37.7524L16.8174 37.922L14.8864 40.042L12.7035 37.8372Z" fill="url(#paint1_linear_807_2893)"/>
<path d="M6.91045 34.8692C6.91045 34.6996 7.07837 34.53 7.24628 34.53V30.0355L8.0019 29.2723L13.2073 34.53L13.0393 34.6996L8.0019 29.6115V32.6644C8.16981 32.7492 8.33773 32.9188 8.33773 33.1732C8.33773 33.4276 8.08585 33.5972 7.83398 33.5124C7.58211 33.5124 7.41419 33.258 7.49815 33.0036C7.49815 32.834 7.66607 32.6644 7.83398 32.6644V29.6115L7.41419 30.0355V34.4452C7.58211 34.53 7.75002 34.6996 7.75002 34.954C7.75002 35.2084 7.49815 35.378 7.24628 35.2932C6.99441 35.2932 6.82649 35.1236 6.91045 34.8692Z" fill="url(#paint2_linear_807_2893)"/>
<path d="M5.98695 38.9396V36.8196L4.97946 34.9539C5.06342 34.8691 5.14737 34.7843 5.14737 34.6995C5.14737 34.4451 4.97946 34.2755 4.81154 34.1907C4.55967 34.1907 4.39176 34.3603 4.3078 34.5299C4.3078 34.7843 4.47572 34.9539 4.64363 35.0387H4.72759L5.73507 36.9044V38.9396C5.56716 39.0244 5.39925 39.194 5.39925 39.3636C5.39925 39.618 5.56716 39.7876 5.81903 39.7876C6.0709 39.7876 6.23882 39.618 6.23882 39.3636C6.32278 39.194 6.15486 39.0244 5.98695 38.9396Z" fill="url(#paint3_linear_807_2893)"/>
<path d="M4.72756 33.0035V30.1203L3.21632 28.5939V26.4739L1.45322 24.6083C1.45322 24.5235 1.45322 24.4387 1.45322 24.3539C1.45322 24.0995 1.28531 23.9299 1.03343 23.9299C0.781562 23.9299 0.613647 24.0995 0.613647 24.3539C0.613647 24.6083 0.781562 24.7779 1.03343 24.7779C1.11739 24.7779 1.20135 24.7779 1.20135 24.6931L2.96445 26.4739V28.5939V28.6787V30.3747C2.79654 30.4595 2.62862 30.6291 2.62862 30.7987C2.71258 30.9683 2.8805 31.1379 3.13237 31.1379C3.38424 31.1379 3.55215 30.9683 3.55215 30.7139C3.55215 30.5443 3.38424 30.3747 3.21632 30.2899V28.8483L4.47568 30.1203V32.9187C4.30777 33.0035 4.13986 33.1731 4.13986 33.3427C4.13986 33.5971 4.30777 33.7667 4.55964 33.7667C4.81151 33.7667 4.97943 33.5971 4.97943 33.3427C5.06339 33.1731 4.89547 33.0883 4.72756 33.0035Z" fill="url(#paint4_linear_807_2893)"/>
<path d="M5.31525 34.4451C5.31525 34.2755 5.48316 34.1059 5.65108 34.0211V29.1027L6.40669 28.3395V26.3043L9.42916 23.2515L9.59707 23.4211L6.65856 26.3891V28.4243V28.5091V32.1555C6.82648 32.2403 6.99439 32.4099 6.99439 32.5795C6.99439 32.8339 6.82648 33.0035 6.57461 33.0035C6.32273 33.0035 6.15482 32.8339 6.15482 32.5795C6.15482 32.4099 6.32273 32.2403 6.49065 32.1555V28.7635L5.98691 29.2723V34.1059C6.15482 34.1907 6.32273 34.3603 6.32273 34.5299C6.32273 34.7843 6.15482 34.9539 5.90295 34.9539C5.56712 34.8691 5.31525 34.6995 5.31525 34.4451Z" fill="url(#paint5_linear_807_2893)"/>
<path d="M6.74253 24.7779C6.49066 24.7779 6.32275 24.9475 6.32275 25.2019C6.32275 25.2867 6.32275 25.3715 6.4067 25.4563L5.39921 26.4739H4.81151L1.45322 23.0819C1.45322 22.9971 1.53718 22.9123 1.53718 22.9123C1.53718 22.6579 1.36926 22.4883 1.11739 22.4883C0.865519 22.4883 0.613647 22.6579 0.613647 22.9123C0.613647 23.1667 0.781562 23.3363 1.03343 23.3363C1.11739 23.3363 1.20135 23.3363 1.20135 23.2515L4.6436 26.7283H5.39921L6.49066 25.6259C6.57462 25.6259 6.57462 25.7107 6.65857 25.7107C6.91045 25.7107 7.07836 25.5411 7.07836 25.2867C7.16232 25.0323 6.9944 24.7779 6.74253 24.7779Z" fill="url(#paint6_linear_807_2893)"/>
<path d="M18.4966 6.37621H17.4051L16.5656 7.22421C16.5656 7.30901 16.5656 7.39381 16.5656 7.47861C16.5656 7.73301 16.3976 7.90261 16.1458 7.90261C15.8939 7.90261 15.726 7.73301 15.726 7.47861C15.726 7.22421 15.8939 7.05461 16.1458 7.05461C16.2297 7.05461 16.3137 7.05461 16.3137 7.13941L17.2372 6.2066H18.5805L20.6795 8.24182L20.5116 8.41142L18.4966 6.37621Z" fill="url(#paint7_linear_807_2893)"/>
<path d="M15.3061 1.96654C15.3061 1.71214 15.1382 1.54254 14.8864 1.54254C14.6345 1.54254 14.4666 1.71214 14.4666 1.96654C14.4666 2.13615 14.6345 2.30575 14.8024 2.39055V6.12177H13.627L12.2837 7.47858C12.1997 7.47858 12.1158 7.39378 12.1158 7.39378C11.8639 7.39378 11.696 7.56338 11.696 7.81778C11.696 8.07218 11.8639 8.24178 12.1158 8.24178C12.3676 8.24178 12.5356 8.07218 12.5356 7.81778C12.5356 7.73298 12.5356 7.64818 12.4516 7.64818L13.7949 6.29137H14.7184L12.3676 8.66579C12.2837 8.66579 12.1997 8.58098 12.1997 8.58098C11.9479 8.58098 11.7799 8.75059 11.7799 9.00499C11.7799 9.25939 11.9479 9.42899 12.1997 9.42899C12.4516 9.42899 12.6195 9.25939 12.6195 9.00499C12.6195 8.92019 12.6195 8.83539 12.5356 8.83539L15.0543 6.29137V2.39055C15.2222 2.30575 15.3061 2.22095 15.3061 1.96654Z" fill="url(#paint8_linear_807_2893)"/>
<path d="M4.47562 23.9299V19.605L3.38418 18.5026V14.3474C3.55209 14.2626 3.72001 14.093 3.72001 13.9234C3.72001 13.669 3.55209 13.4994 3.30022 13.4994C3.04835 13.4994 2.88043 13.669 2.88043 13.9234C2.88043 14.093 3.04835 14.2626 3.21626 14.3474V18.5874V18.6722V21.5554C3.04835 21.6402 2.88043 21.8098 2.88043 21.9794C2.88043 22.2338 3.04835 22.4034 3.30022 22.4034C3.55209 22.4034 3.72001 22.2338 3.72001 21.9794C3.72001 21.8098 3.55209 21.6402 3.38418 21.5554V18.9266L4.22375 19.7746V24.0147C4.05584 24.0995 3.88792 24.2691 3.88792 24.4387C3.88792 24.6931 4.05583 24.8627 4.30771 24.8627C4.64354 24.7779 4.81145 24.6083 4.81145 24.3539C4.81145 24.1843 4.64354 24.0147 4.47562 23.9299Z" fill="url(#paint9_linear_807_2893)"/>
<path d="M11.5281 4.00176C11.5281 3.74736 11.3602 3.57776 11.1083 3.57776C10.8564 3.57776 10.6885 3.74736 10.6885 4.00176C10.6885 4.17136 10.8564 4.34096 11.0244 4.42576V6.54578L7.66607 9.9378C7.58211 9.9378 7.58211 9.9378 7.49815 9.9378C7.24628 9.9378 7.07836 10.1074 7.07836 10.3618C7.07836 10.6162 7.24628 10.7858 7.49815 10.7858C7.75002 10.7858 7.91794 10.6162 7.91794 10.3618C7.91794 10.277 7.91794 10.1922 7.83398 10.1074L9.51313 8.41139V9.853L6.91045 12.4818L5.819 13.5842C5.73505 13.5842 5.65109 13.4994 5.65109 13.4994C5.39922 13.4994 5.2313 13.669 5.2313 13.9234C5.2313 14.1778 5.39922 14.3474 5.65109 14.3474C5.90296 14.3474 6.07088 14.1778 6.07088 13.9234C6.07088 13.8386 6.07088 13.7538 5.98692 13.7538L6.91045 12.821V14.093L4.81152 16.1282C4.72756 16.1282 4.6436 16.0434 4.6436 16.0434C4.39173 16.0434 4.22382 16.213 4.22382 16.4674C4.22382 16.7218 4.39173 16.8914 4.6436 16.8914C4.89547 16.8914 5.06339 16.7218 5.06339 16.4674C5.06339 16.3826 5.06339 16.2978 4.97943 16.2978L7.07836 14.1778V12.5666L9.68104 9.9378V8.24179L11.1923 6.71538V4.42576C11.4441 4.34096 11.5281 4.17136 11.5281 4.00176Z" fill="url(#paint10_linear_807_2893)"/>
<path d="M5.06342 24.9475C5.06342 24.7779 5.23133 24.6083 5.39924 24.5235V21.8099L6.32278 20.877V16.9762L9.76503 13.4994L12.1158 11.125H11.1083L10.5206 11.7186C10.5206 11.8034 10.5206 11.8034 10.5206 11.8882C10.5206 12.1426 10.3527 12.3122 10.1009 12.3122C9.84898 12.3122 9.68107 12.1426 9.68107 11.8882C9.68107 11.6338 9.84898 11.4642 10.1009 11.4642C10.1848 11.4642 10.2688 11.4642 10.3527 11.549L11.0244 10.8706H12.3677L14.5506 8.66577L16.3977 10.5314L16.2297 10.701L14.5506 9.00497L12.5356 11.0402L10.1009 13.4994V15.0258L8.16984 16.8914V18.6722C8.33775 18.757 8.50567 18.9266 8.50567 19.0962C8.50567 19.3506 8.33775 19.5202 8.08588 19.5202C7.83401 19.5202 7.66609 19.3506 7.66609 19.0962C7.66609 18.9266 7.83401 18.757 8.00192 18.6722V16.8066L9.76503 15.0258V13.8386L6.57465 17.061V22.6579C6.74256 22.7427 6.91048 22.9123 6.91048 23.0819C6.91048 23.3363 6.74256 23.5059 6.49069 23.5059C6.23882 23.5059 6.0709 23.3363 6.0709 23.0819C6.0709 22.9123 6.23882 22.7427 6.40673 22.6579V21.1314L5.65112 21.8947V24.5235C5.81903 24.6083 5.98695 24.7779 5.98695 24.9475C5.98695 25.2019 5.81903 25.3715 5.56716 25.3715C5.23133 25.3715 5.06342 25.2019 5.06342 24.9475Z" fill="url(#paint11_linear_807_2893)"/>
<path d="M6.74258 24.0147C6.74258 23.8451 6.9105 23.6755 7.07841 23.5907V22.0643L10.1848 18.9266L10.3527 19.0962L7.33029 22.1491V23.5907C7.4982 23.6755 7.66611 23.8451 7.66611 24.0147C7.66611 24.2691 7.4982 24.4387 7.24633 24.4387C6.99446 24.4387 6.74258 24.2691 6.74258 24.0147Z" fill="url(#paint12_linear_807_2893)"/>
<path d="M11.1923 44.282V41.9924L9.68104 40.466V38.77L7.33023 36.3108C7.33023 36.226 7.41419 36.1412 7.41419 36.0564C7.41419 35.802 7.24627 35.6324 6.9944 35.6324C6.74253 35.6324 6.57462 35.802 6.57462 36.0564C6.57462 36.3108 6.74253 36.4804 6.9944 36.4804C7.07836 36.4804 7.16232 36.4804 7.16232 36.3956L9.42916 38.6852V40.1268L7.75002 38.4308C7.75002 38.346 7.83398 38.2612 7.83398 38.2612C7.83398 38.0068 7.66606 37.8372 7.41419 37.8372C7.16232 37.8372 6.9944 38.0068 6.9944 38.2612C6.9944 38.5156 7.16232 38.6852 7.41419 38.6852C7.49815 38.6852 7.5821 38.6852 7.5821 38.6004L10.9404 41.9924V44.1972C10.7725 44.3668 10.6885 44.5364 10.6885 44.706C10.6885 44.9604 10.8564 45.13 11.1083 45.13C11.3602 45.13 11.5281 44.9604 11.5281 44.706C11.5281 44.5364 11.4441 44.3668 11.1923 44.282Z" fill="url(#paint13_linear_807_2893)"/>
<path d="M15.0543 46.3173V42.4164L12.5356 39.8724C12.5356 39.7876 12.6195 39.7028 12.6195 39.7028C12.6195 39.4484 12.4516 39.2788 12.1998 39.2788C11.9479 39.2788 11.78 39.4484 11.78 39.7028C11.78 39.9572 11.9479 40.1268 12.1998 40.1268C12.2837 40.1268 12.3677 40.1268 12.3677 40.042L14.6345 42.3316H13.711L12.4516 41.0596C12.4516 40.9748 12.4516 40.9748 12.4516 40.89C12.4516 40.6356 12.2837 40.466 12.0318 40.466C11.78 40.466 11.6121 40.6356 11.6121 40.89C11.6121 41.1444 11.78 41.314 12.0318 41.314C12.1158 41.314 12.1998 41.314 12.2837 41.2292L13.627 42.586H14.8024V46.3173C14.6345 46.4021 14.4666 46.5717 14.4666 46.7413C14.4666 46.9957 14.6345 47.1653 14.8864 47.1653C15.1383 47.1653 15.3062 46.9957 15.3062 46.7413C15.3901 46.5717 15.2222 46.4021 15.0543 46.3173Z" fill="url(#paint14_linear_807_2893)"/>
<path d="M35.6238 41.6532C35.7078 41.6532 35.7078 41.738 35.7917 41.738C36.0436 41.738 36.2115 41.5684 36.2115 41.314C36.2115 41.0596 36.0436 40.89 35.7917 40.89C35.5399 40.89 35.3719 41.0596 35.3719 41.314C35.3719 41.3988 35.3719 41.4836 35.4559 41.5684L34.6163 42.4164H33.5249L31.1741 40.042L31.0062 40.2116L33.4409 42.6708H34.7842L35.6238 41.6532Z" fill="url(#paint15_linear_807_2893)"/>
<path d="M39.234 37.8372H40.5773L41.2489 37.1588C41.3329 37.1588 41.4169 37.2436 41.4169 37.2436C41.6687 37.2436 41.8366 37.074 41.8366 36.8196C41.8366 36.5652 41.6687 36.3956 41.4169 36.3956C41.165 36.3956 40.9971 36.5652 40.9971 36.8196C40.9971 36.9044 40.9971 36.9892 41.081 36.9892L40.4933 37.5828H39.4858L41.8366 35.2084V34.0212C42.0046 33.9364 42.1725 33.7668 42.1725 33.5972C42.1725 33.3428 42.0046 33.1732 41.7527 33.1732C41.5008 33.1732 41.3329 33.3428 41.3329 33.5972C41.3329 33.7668 41.5008 33.9364 41.6687 34.0212V35.0388L39.234 37.498L37.135 39.618L35.288 37.922L35.1201 38.0916L37.0511 40.042L39.234 37.8372Z" fill="url(#paint16_linear_807_2893)"/>
<path d="M45.0271 34.8692C45.0271 34.6996 44.8592 34.53 44.6913 34.53V30.0355L43.9357 29.2723L38.7303 34.53L38.8982 34.6996L43.8517 29.6963V32.7492C43.6838 32.834 43.5159 33.0036 43.5159 33.258C43.5159 33.5124 43.7678 33.682 44.0196 33.5972C44.2715 33.5972 44.4394 33.3428 44.3555 33.0884C44.3555 32.9188 44.1875 32.7492 44.0196 32.7492V29.6963L44.4394 30.1203V34.53C44.2715 34.6148 44.1036 34.7844 44.1036 35.0388C44.1036 35.2932 44.3555 35.4628 44.6073 35.378C44.9432 35.2932 45.1111 35.1236 45.0271 34.8692Z" fill="url(#paint17_linear_807_2893)"/>
<path d="M47.126 34.2755C46.8741 34.2755 46.7062 34.5299 46.7902 34.7843C46.7902 34.8691 46.8741 34.9539 46.9581 35.0387L45.9506 36.8196V38.9396C45.7827 39.0244 45.6148 39.194 45.6148 39.3636C45.6148 39.618 45.7827 39.7876 46.0346 39.7876C46.2864 39.7876 46.4543 39.618 46.4543 39.3636C46.4543 39.194 46.2864 39.0244 46.1185 38.9396V36.9044L47.126 35.0387H47.21C47.4618 35.0387 47.6298 34.7843 47.5458 34.5299C47.6298 34.3603 47.3779 34.1907 47.126 34.2755Z" fill="url(#paint18_linear_807_2893)"/>
<path d="M50.904 23.9299C50.6522 23.9299 50.4843 24.0995 50.4843 24.3539C50.4843 24.4387 50.4843 24.5235 50.5682 24.5235L48.7211 26.3891V28.5939L47.2099 30.1203V33.0035C47.042 33.0883 46.8741 33.2579 46.8741 33.4275C46.8741 33.6819 47.042 33.8515 47.2939 33.8515C47.5457 33.8515 47.7137 33.6819 47.7137 33.4275C47.7137 33.2579 47.5457 33.0883 47.3778 33.0035V30.2051L48.6372 28.9331V30.2899C48.4693 30.3747 48.3014 30.5443 48.3014 30.7139C48.3014 30.9683 48.4693 31.1379 48.7211 31.1379C48.973 31.1379 49.1409 30.9683 49.1409 30.7139C49.1409 30.5443 48.973 30.3747 48.8051 30.2899V28.5939V26.4739L50.5682 24.6931C50.6522 24.6931 50.7361 24.7779 50.7361 24.7779C50.988 24.7779 51.1559 24.6083 51.1559 24.3539C51.1559 24.0995 51.1559 23.9299 50.904 23.9299Z" fill="url(#paint19_linear_807_2893)"/>
<path d="M46.6222 34.4451C46.6222 34.2755 46.4543 34.1059 46.2864 34.0211V29.1027L45.5308 28.3395V26.3043L42.5083 23.2515L42.3404 23.4211L45.2789 26.3891V28.4243V28.5091V32.1555C45.111 32.2403 44.9431 32.4099 44.9431 32.5795C44.9431 32.8339 45.111 33.0035 45.3629 33.0035C45.6147 33.0035 45.7826 32.8339 45.7826 32.5795C45.7826 32.4099 45.6147 32.2403 45.4468 32.1555V28.7635L45.9506 29.2723V34.1059C45.7826 34.1907 45.6147 34.3603 45.6147 34.5299C45.6147 34.7843 45.7826 34.9539 46.0345 34.9539C46.4543 34.8691 46.6222 34.6995 46.6222 34.4451Z" fill="url(#paint20_linear_807_2893)"/>
<path d="M50.9041 22.4883C50.6522 22.4883 50.4843 22.6579 50.4843 22.9123C50.4843 22.9971 50.4843 23.0819 50.5682 23.0819L47.2099 26.4739H46.6222L45.6147 25.4563C45.6147 25.3715 45.6987 25.2867 45.6987 25.2019C45.6987 24.9475 45.5308 24.7779 45.2789 24.7779C45.027 24.7779 44.8591 24.9475 44.8591 25.2019C44.8591 25.4563 45.027 25.6259 45.2789 25.6259C45.3629 25.6259 45.4468 25.6259 45.4468 25.5411L46.5383 26.6435H47.2939L50.7361 23.1667C50.8201 23.1667 50.9041 23.2515 50.9041 23.2515C51.1559 23.2515 51.3238 23.0819 51.3238 22.8275C51.3238 22.6579 51.072 22.4883 50.9041 22.4883Z" fill="url(#paint21_linear_807_2893)"/>
<path d="M33.4409 6.37621H34.5324L35.372 7.22421C35.372 7.30901 35.288 7.39381 35.288 7.47861C35.288 7.73301 35.4559 7.90261 35.7078 7.90261C35.9597 7.90261 36.1276 7.73301 36.1276 7.47861C36.1276 7.22421 35.9597 7.05461 35.7078 7.05461C35.6238 7.05461 35.5399 7.05461 35.5399 7.13941L34.6163 6.2066H33.357L31.2581 8.24182L31.426 8.41142L33.4409 6.37621Z" fill="url(#paint22_linear_807_2893)"/>
<path d="M39.9056 8.32658C40.1575 8.32658 40.3254 8.15698 40.3254 7.90258C40.3254 7.64818 40.1575 7.47858 39.9056 7.47858C39.8217 7.47858 39.7377 7.47858 39.7377 7.56338L38.3944 6.20657H37.219V2.39055C37.3869 2.30575 37.5548 2.13615 37.5548 1.96654C37.5548 1.71214 37.3869 1.54254 37.1351 1.54254C36.8832 1.54254 36.7153 1.71214 36.7153 1.96654C36.7153 2.13615 36.8832 2.30575 37.0511 2.39055V6.29137L39.5698 8.83539C39.5698 8.92019 39.4859 9.00499 39.4859 9.00499C39.4859 9.25939 39.6538 9.42899 39.9056 9.42899C40.1575 9.42899 40.3254 9.25939 40.3254 9.00499C40.3254 8.75059 40.1575 8.58098 39.9056 8.58098C39.8217 8.58098 39.7377 8.58098 39.7377 8.66579L37.4709 6.37617H38.3944L39.7377 7.73298C39.7377 7.81778 39.6538 7.90258 39.6538 7.90258C39.4859 8.15698 39.6538 8.32658 39.9056 8.32658Z" fill="url(#paint23_linear_807_2893)"/>
<path d="M48.8052 21.4707V18.5874V18.5026V14.2626C48.9731 14.1778 49.141 14.0082 49.141 13.8386C49.141 13.5842 48.9731 13.4146 48.7212 13.4146C48.4694 13.4146 48.3014 13.5842 48.3014 13.8386C48.3014 14.0082 48.4694 14.1778 48.6373 14.2626V18.4178L47.5458 19.5202V23.8451C47.3779 23.9299 47.21 24.0995 47.21 24.2691C47.21 24.5235 47.3779 24.6931 47.6298 24.6931C47.8817 24.6931 48.0496 24.5235 48.0496 24.2691C48.0496 24.0995 47.8816 23.9299 47.7137 23.8451V19.605L48.5533 18.757V21.3859C48.3854 21.4707 48.2175 21.6403 48.2175 21.8099C48.2175 22.0643 48.3854 22.2339 48.6373 22.2339C48.8891 22.2339 49.0571 22.0643 49.0571 21.8099C49.141 21.7251 48.9731 21.5555 48.8052 21.4707Z" fill="url(#paint24_linear_807_2893)"/>
<path d="M47.3779 16.1282C47.2939 16.1282 47.21 16.1282 47.21 16.213L45.111 14.093V12.821L46.0346 13.7538C46.0346 13.8386 45.9506 13.9234 45.9506 13.9234C45.9506 14.1778 46.1185 14.3474 46.3704 14.3474C46.6223 14.3474 46.7902 14.1778 46.7902 13.9234C46.7902 13.669 46.6223 13.4994 46.3704 13.4994C46.2864 13.4994 46.2025 13.4994 46.2025 13.5842L45.111 12.5666L42.5084 9.9378V8.49619L44.1875 10.1922C44.1035 10.277 44.1035 10.3618 44.1035 10.4466C44.1035 10.701 44.2715 10.8706 44.5233 10.8706C44.7752 10.8706 44.9431 10.701 44.9431 10.4466C44.9431 10.1922 44.7752 10.0226 44.5233 10.0226C44.4394 10.0226 44.4394 10.0226 44.3554 10.0226L40.9971 6.63058V4.42576C41.165 4.34096 41.333 4.25616 41.333 4.00176C41.333 3.74736 41.165 3.57776 40.9132 3.57776C40.6613 3.57776 40.4094 3.74736 40.4094 4.00176C40.4094 4.17136 40.5773 4.34096 40.7453 4.42576V6.71538L42.2565 8.24179V9.9378L44.8592 12.5666V14.1778L46.9581 16.2978C46.9581 16.3826 46.8741 16.4674 46.8741 16.4674C46.8741 16.7218 47.0421 16.8914 47.2939 16.8914C47.5458 16.8914 47.7137 16.7218 47.7137 16.4674C47.7977 16.2978 47.6298 16.1282 47.3779 16.1282Z" fill="url(#paint25_linear_807_2893)"/>
<path d="M46.8741 24.9475C46.8741 24.7779 46.7062 24.6083 46.5383 24.5235V21.8099L45.6148 20.877V16.9762L42.1725 13.4994L39.8217 11.125H40.9132L41.5009 11.7186C41.5009 11.8034 41.5009 11.8034 41.5009 11.8882C41.5009 12.1426 41.6688 12.3122 41.9206 12.3122C42.1725 12.3122 42.3404 12.1426 42.3404 11.8882C42.3404 11.6338 42.1725 11.4642 41.9206 11.4642C41.8367 11.4642 41.7527 11.4642 41.6688 11.549L40.9971 10.8706H39.6538L37.4709 8.66577L35.6238 10.5314L35.7918 10.701L37.4709 9.00497L39.4859 11.0402L41.9206 13.4994V15.0258L43.6837 16.8066V18.5874C43.5158 18.6722 43.3479 18.8418 43.3479 19.0114C43.3479 19.2658 43.5158 19.4354 43.7677 19.4354C44.0196 19.4354 44.1875 19.2658 44.1875 19.0114C44.1875 18.8418 44.0196 18.6722 43.8517 18.5874V16.7218L42.2565 15.0258V13.8386L45.4468 17.061V22.6579C45.2789 22.7427 45.111 22.9123 45.111 23.0819C45.111 23.3363 45.2789 23.5059 45.5308 23.5059C45.7827 23.5059 45.9506 23.3363 45.9506 23.0819C45.9506 22.9123 45.7827 22.7427 45.6148 22.6579V21.1314L46.2864 21.8099V24.4387C46.1185 24.5235 45.9506 24.6931 45.9506 24.8627C45.9506 25.1171 46.1185 25.2867 46.3704 25.2867C46.7062 25.3715 46.8741 25.2019 46.8741 24.9475Z" fill="url(#paint26_linear_807_2893)"/>
<path d="M45.195 24.0147C45.195 23.8451 45.0271 23.6755 44.8592 23.5907V22.0643L41.7528 18.9266L41.5849 19.0962L44.6073 22.1491V23.5907C44.4394 23.6755 44.2715 23.8451 44.2715 24.0147C44.2715 24.2691 44.4394 24.4387 44.6913 24.4387C45.0271 24.4387 45.195 24.2691 45.195 24.0147Z" fill="url(#paint27_linear_807_2893)"/>
<path d="M45.0271 35.7172C44.7752 35.7172 44.6073 35.8868 44.6073 36.1412C44.6073 36.226 44.6073 36.3108 44.6912 36.3956L42.2565 38.77V40.5508L40.7453 42.0772V44.3668C40.5773 44.4516 40.4094 44.6212 40.4094 44.7908C40.4094 45.0452 40.5773 45.2148 40.8292 45.2148C41.0811 45.2148 41.249 45.0452 41.249 44.7908C41.249 44.6212 41.0811 44.4516 40.9132 44.3668V42.162L44.2715 38.77C44.3554 38.77 44.4394 38.8548 44.4394 38.8548C44.6912 38.8548 44.8592 38.6852 44.8592 38.4308C44.8592 38.1764 44.6912 38.0068 44.4394 38.0068C44.1875 38.0068 44.0196 38.1764 44.0196 38.4308C44.0196 38.5156 44.0196 38.6004 44.1035 38.6004L42.4244 40.2964V38.8548L44.6912 36.5652C44.7752 36.5652 44.8592 36.65 44.8592 36.65C45.111 36.65 45.2789 36.4804 45.2789 36.226C45.4469 35.8868 45.195 35.7172 45.0271 35.7172Z" fill="url(#paint28_linear_807_2893)"/>
<path d="M39.9057 40.466C39.6538 40.466 39.4859 40.6356 39.4859 40.89C39.4859 40.9748 39.4859 40.9748 39.4859 41.0596L38.2265 42.3316H37.303L39.5699 40.042C39.6538 40.042 39.7378 40.1268 39.7378 40.1268C39.9896 40.1268 40.1576 39.9572 40.1576 39.7028C40.1576 39.4484 39.9896 39.2788 39.7378 39.2788C39.4859 39.2788 39.318 39.4484 39.318 39.7028C39.318 39.7876 39.318 39.8724 39.4019 39.8724L36.8832 42.4164V46.3173C36.7153 46.4021 36.5474 46.5717 36.5474 46.7413C36.5474 46.9957 36.7153 47.1653 36.9672 47.1653C37.2191 47.1653 37.387 46.9957 37.387 46.7413C37.387 46.5717 37.2191 46.4021 37.0511 46.3173V42.586H38.2265L39.5699 41.2292C39.6538 41.314 39.7378 41.314 39.8217 41.314C40.0736 41.314 40.2415 41.1444 40.2415 40.89C40.3255 40.6356 40.1576 40.466 39.9057 40.466Z" fill="url(#paint29_linear_807_2893)"/>
<path d="M29.9987 5.35856C29.9148 5.35856 29.8308 5.35856 29.8308 5.44336L28.4875 4.08655H25.9688H23.4501L22.1067 5.44336C22.0228 5.44336 21.9388 5.35856 21.9388 5.35856C21.687 5.35856 21.519 5.52816 21.519 5.78256C21.519 6.03696 21.687 6.20656 21.9388 6.20656C22.1907 6.20656 22.3586 6.03696 22.3586 5.78256C22.3586 5.69776 22.3586 5.61296 22.2747 5.61296L23.534 4.34095H25.9688H28.4035L29.6629 5.61296C29.6629 5.69776 29.5789 5.78256 29.5789 5.78256C29.5789 6.03696 29.7469 6.20656 29.9987 6.20656C30.2506 6.20656 30.4185 6.03696 30.4185 5.78256C30.5025 5.52816 30.2506 5.35856 29.9987 5.35856Z" fill="url(#paint30_linear_807_2893)"/>
<path d="M33.0212 3.91696C32.8532 3.91696 32.6853 4.08656 32.6014 4.25616H30.6704L29.1591 2.72975H30.7543C30.8383 2.89935 31.0062 3.06895 31.1741 3.06895C31.426 3.06895 31.5939 2.89935 31.5939 2.64495C31.5939 2.39055 31.426 2.22095 31.1741 2.22095C31.0062 2.22095 30.8383 2.39055 30.7543 2.56015H26.0527H21.3511C21.2671 2.39055 21.0992 2.22095 20.9313 2.22095C20.6794 2.22095 20.5115 2.39055 20.5115 2.64495C20.5115 2.89935 20.6794 3.06895 20.9313 3.06895C21.0992 3.06895 21.2671 2.89935 21.3511 2.72975H22.9463L21.4351 4.25616H19.504C19.4201 4.08656 19.2522 3.91696 19.0842 3.91696C18.8324 3.91696 18.6645 4.08656 18.6645 4.34096C18.6645 4.59536 18.8324 4.76496 19.0842 4.76496C19.2522 4.76496 19.4201 4.59536 19.504 4.42576H21.519L23.2821 2.64495H26.1367H28.9912L30.7543 4.42576H32.7693C32.6014 4.68016 32.7693 4.84976 33.0212 4.84976C33.273 4.84976 33.4409 4.68016 33.4409 4.42576C33.4409 4.17136 33.1891 3.91696 33.0212 3.91696Z" fill="url(#paint31_linear_807_2893)"/>
<path d="M27.312 0.609741C27.1441 0.609741 26.9762 0.779342 26.8923 0.948943H25.9687H25.0452C24.9612 0.779342 24.7933 0.609741 24.6254 0.609741C24.3735 0.609741 24.2056 0.779342 24.2056 1.03374C24.2056 1.28815 24.3735 1.45775 24.6254 1.45775C24.7933 1.45775 24.9612 1.28815 25.0452 1.11854H25.9687H26.8923C26.9762 1.37295 27.1441 1.45775 27.312 1.45775C27.5639 1.45775 27.7318 1.28815 27.7318 1.03374C27.7318 0.779342 27.5639 0.609741 27.312 0.609741Z" fill="url(#paint32_linear_807_2893)"/>
<path d="M27.8998 44.7908C27.7319 44.7908 27.564 44.9604 27.48 45.13H25.9688H24.4576C24.3736 44.9604 24.2057 44.7908 24.0378 44.7908C23.7859 44.7908 23.618 44.9604 23.618 45.2148C23.618 45.4692 23.7859 45.6388 24.0378 45.6388C24.2057 45.6388 24.3736 45.4692 24.4576 45.2996H25.9688H27.48C27.564 45.4692 27.7319 45.6388 27.8998 45.6388C28.1517 45.6388 28.3196 45.4692 28.3196 45.2148C28.3196 44.9604 28.0677 44.7908 27.8998 44.7908Z" fill="url(#paint33_linear_807_2893)"/>
<path d="M33.273 45.7236C33.1891 45.7236 33.1051 45.7236 33.1051 45.8084L32.0976 44.7908H29.9147L28.8233 43.6884H30.5864C30.6703 43.858 30.8383 44.0276 31.0062 44.0276C31.258 44.0276 31.426 43.858 31.426 43.6036C31.426 43.3492 31.258 43.1796 31.0062 43.1796C30.8383 43.1796 30.6703 43.3492 30.5864 43.5188H28.5714H28.4875H25.9687H23.45H23.3661H21.3511C21.2671 43.3492 21.0992 43.1796 20.9313 43.1796C20.6794 43.1796 20.5115 43.3492 20.5115 43.6036C20.5115 43.858 20.6794 44.0276 20.9313 44.0276C21.0992 44.0276 21.2671 43.858 21.3511 43.6884H23.1142L22.0227 44.7908H19.9238L18.9163 45.8084C18.8324 45.8084 18.7484 45.7236 18.7484 45.7236C18.4965 45.7236 18.3286 45.8932 18.3286 46.1476C18.3286 46.402 18.4965 46.5716 18.7484 46.5716C19.0003 46.5716 19.1682 46.402 19.1682 46.1476C19.1682 46.0628 19.1682 45.978 19.0842 45.978L20.0917 44.9604H22.2746L23.6179 43.6036H26.0527H28.4875L29.8308 44.9604H32.0137L33.0211 45.978C33.0211 46.0628 32.9372 46.1476 32.9372 46.1476C32.9372 46.402 33.1051 46.5716 33.357 46.5716C33.6088 46.5716 33.7768 46.402 33.7768 46.1476C33.6928 45.978 33.5249 45.7236 33.273 45.7236Z" fill="url(#paint34_linear_807_2893)"/>
<path d="M28.9913 45.554C28.7394 45.554 28.5715 45.7236 28.5715 45.978C28.5715 46.0628 28.5715 46.1476 28.6555 46.1476L28.1517 46.6564H26.0528H23.9538L23.4501 46.1476C23.4501 46.0628 23.5341 45.978 23.5341 45.978C23.5341 45.7236 23.3661 45.554 23.1143 45.554C22.8624 45.554 22.6945 45.7236 22.6945 45.978C22.6945 46.2324 22.8624 46.402 23.1143 46.402C23.1982 46.402 23.2822 46.402 23.2822 46.3172L23.8699 46.9108H26.0528H28.2357L28.8234 46.3172C28.9073 46.3172 28.9913 46.402 28.9913 46.402C29.2432 46.402 29.4111 46.2324 29.4111 45.978C29.4111 45.8084 29.2432 45.554 28.9913 45.554Z" fill="url(#paint35_linear_807_2893)"/>
</g>
<defs>
<linearGradient id="paint0_linear_807_2893" x1="-5.45033" y1="19.6009" x2="35.5042" y2="55.2407" gradientUnits="userSpaceOnUse">
<stop stop-color="#E8AC58"/>
<stop offset="0.3246" stop-color="#E09E42"/>
<stop offset="0.5025" stop-color="#CC8C2E"/>
<stop offset="0.6704" stop-color="#BD7F20"/>
<stop offset="0.6763" stop-color="#BE8022"/>
<stop offset="0.8942" stop-color="#DCA658"/>
<stop offset="1" stop-color="#E8B56D"/>
</linearGradient>
<linearGradient id="paint1_linear_807_2893" x1="-6.00318" y1="20.236" x2="34.9515" y2="55.8759" gradientUnits="userSpaceOnUse">
<stop stop-color="#E8AC58"/>
<stop offset="0.3246" stop-color="#E09E42"/>
<stop offset="0.5025" stop-color="#CC8C2E"/>
<stop offset="0.6704" stop-color="#BD7F20"/>
<stop offset="0.6763" stop-color="#BE8022"/>
<stop offset="0.8942" stop-color="#DCA658"/>
<stop offset="1" stop-color="#E8B56D"/>
</linearGradient>
<linearGradient id="paint2_linear_807_2893" x1="-6.00613" y1="20.2392" x2="34.9489" y2="55.8795" gradientUnits="userSpaceOnUse">
<stop stop-color="#E8AC58"/>
<stop offset="0.3246" stop-color="#E09E42"/>
<stop offset="0.5025" stop-color="#CC8C2E"/>
<stop offset="0.6704" stop-color="#BD7F20"/>
<stop offset="0.6763" stop-color="#BE8022"/>
<stop offset="0.8942" stop-color="#DCA658"/>
<stop offset="1" stop-color="#E8B56D"/>
</linearGradient>
<linearGradient id="paint3_linear_807_2893" x1="-9.31385" y1="24.0404" x2="31.641" y2="59.6804" gradientUnits="userSpaceOnUse">
<stop stop-color="#E8AC58"/>
<stop offset="0.3246" stop-color="#E09E42"/>
<stop offset="0.5025" stop-color="#CC8C2E"/>
<stop offset="0.6704" stop-color="#BD7F20"/>
<stop offset="0.6763" stop-color="#BE8022"/>
<stop offset="0.8942" stop-color="#DCA658"/>
<stop offset="1" stop-color="#E8B56D"/>
</linearGradient>
<linearGradient id="paint4_linear_807_2893" x1="-6.4009" y1="20.6929" x2="34.5541" y2="56.333" gradientUnits="userSpaceOnUse">
<stop stop-color="#E8AC58"/>
<stop offset="0.3246" stop-color="#E09E42"/>
<stop offset="0.5025" stop-color="#CC8C2E"/>
<stop offset="0.6704" stop-color="#BD7F20"/>
<stop offset="0.6763" stop-color="#BE8022"/>
<stop offset="0.8942" stop-color="#DCA658"/>
<stop offset="1" stop-color="#E8B56D"/>
</linearGradient>
<linearGradient id="paint5_linear_807_2893" x1="-4.47418" y1="18.4779" x2="36.4822" y2="54.1191" gradientUnits="userSpaceOnUse">
<stop stop-color="#E8AC58"/>
<stop offset="0.3246" stop-color="#E09E42"/>
<stop offset="0.5025" stop-color="#CC8C2E"/>
<stop offset="0.6704" stop-color="#BD7F20"/>
<stop offset="0.6763" stop-color="#BE8022"/>
<stop offset="0.8942" stop-color="#DCA658"/>
<stop offset="1" stop-color="#E8B56D"/>
</linearGradient>
<linearGradient id="paint6_linear_807_2893" x1="-3.58271" y1="17.4545" x2="37.3723" y2="53.0946" gradientUnits="userSpaceOnUse">
<stop stop-color="#E8AC58"/>
<stop offset="0.3246" stop-color="#E09E42"/>
<stop offset="0.5025" stop-color="#CC8C2E"/>
<stop offset="0.6704" stop-color="#BD7F20"/>
<stop offset="0.6763" stop-color="#BE8022"/>
<stop offset="0.8942" stop-color="#DCA658"/>
<stop offset="1" stop-color="#E8B56D"/>
</linearGradient>
<linearGradient id="paint7_linear_807_2893" x1="10.6379" y1="1.11331" x2="51.5931" y2="36.7536" gradientUnits="userSpaceOnUse">
<stop stop-color="#E8AC58"/>
<stop offset="0.3246" stop-color="#E09E42"/>
<stop offset="0.5025" stop-color="#CC8C2E"/>
<stop offset="0.6704" stop-color="#BD7F20"/>
<stop offset="0.6763" stop-color="#BE8022"/>
<stop offset="0.8942" stop-color="#DCA658"/>
<stop offset="1" stop-color="#E8B56D"/>
</linearGradient>
<linearGradient id="paint8_linear_807_2893" x1="9.73239" y1="2.15387" x2="50.6868" y2="37.7935" gradientUnits="userSpaceOnUse">
<stop stop-color="#E8AC58"/>
<stop offset="0.3246" stop-color="#E09E42"/>
<stop offset="0.5025" stop-color="#CC8C2E"/>
<stop offset="0.6704" stop-color="#BD7F20"/>
<stop offset="0.6763" stop-color="#BE8022"/>
<stop offset="0.8942" stop-color="#DCA658"/>
<stop offset="1" stop-color="#E8B56D"/>
</linearGradient>
<linearGradient id="paint9_linear_807_2893" x1="-1.18621" y1="14.7006" x2="39.7684" y2="50.3404" gradientUnits="userSpaceOnUse">
<stop stop-color="#E8AC58"/>
<stop offset="0.3246" stop-color="#E09E42"/>
<stop offset="0.5025" stop-color="#CC8C2E"/>
<stop offset="0.6704" stop-color="#BD7F20"/>
<stop offset="0.6763" stop-color="#BE8022"/>
<stop offset="0.8942" stop-color="#DCA658"/>
<stop offset="1" stop-color="#E8B56D"/>
</linearGradient>
<linearGradient id="paint10_linear_807_2893" x1="4.92738" y1="7.67566" x2="45.8812" y2="43.3148" gradientUnits="userSpaceOnUse">
<stop stop-color="#E8AC58"/>
<stop offset="0.3246" stop-color="#E09E42"/>
<stop offset="0.5025" stop-color="#CC8C2E"/>
<stop offset="0.6704" stop-color="#BD7F20"/>
<stop offset="0.6763" stop-color="#BE8022"/>
<stop offset="0.8942" stop-color="#DCA658"/>
<stop offset="1" stop-color="#E8B56D"/>
</linearGradient>
<linearGradient id="paint11_linear_807_2893" x1="2.50969" y1="10.4535" x2="43.4649" y2="46.094" gradientUnits="userSpaceOnUse">
<stop stop-color="#E8AC58"/>
<stop offset="0.3246" stop-color="#E09E42"/>
<stop offset="0.5025" stop-color="#CC8C2E"/>
<stop offset="0.6704" stop-color="#BD7F20"/>
<stop offset="0.6763" stop-color="#BE8022"/>
<stop offset="0.8942" stop-color="#DCA658"/>
<stop offset="1" stop-color="#E8B56D"/>
</linearGradient>
<linearGradient id="paint12_linear_807_2893" x1="-0.345849" y1="13.735" x2="40.6093" y2="49.3753" gradientUnits="userSpaceOnUse">
<stop stop-color="#E8AC58"/>
<stop offset="0.3246" stop-color="#E09E42"/>
<stop offset="0.5025" stop-color="#CC8C2E"/>
<stop offset="0.6704" stop-color="#BD7F20"/>
<stop offset="0.6763" stop-color="#BE8022"/>
<stop offset="0.8942" stop-color="#DCA658"/>
<stop offset="1" stop-color="#E8B56D"/>
</linearGradient>
<linearGradient id="paint13_linear_807_2893" x1="-9.36216" y1="24.0958" x2="31.5927" y2="59.7359" gradientUnits="userSpaceOnUse">
<stop stop-color="#E8AC58"/>
<stop offset="0.3246" stop-color="#E09E42"/>
<stop offset="0.5025" stop-color="#CC8C2E"/>
<stop offset="0.6704" stop-color="#BD7F20"/>
<stop offset="0.6763" stop-color="#BE8022"/>
<stop offset="0.8942" stop-color="#DCA658"/>
<stop offset="1" stop-color="#E8B56D"/>
</linearGradient>
<linearGradient id="paint14_linear_807_2893" x1="-8.75615" y1="23.3996" x2="32.1987" y2="59.0396" gradientUnits="userSpaceOnUse">
<stop stop-color="#E8AC58"/>
<stop offset="0.3246" stop-color="#E09E42"/>
<stop offset="0.5025" stop-color="#CC8C2E"/>
<stop offset="0.6704" stop-color="#BD7F20"/>
<stop offset="0.6763" stop-color="#BE8022"/>
<stop offset="0.8942" stop-color="#DCA658"/>
<stop offset="1" stop-color="#E8B56D"/>
</linearGradient>
<linearGradient id="paint15_linear_807_2893" x1="1.17696" y1="11.9849" x2="42.1318" y2="47.6249" gradientUnits="userSpaceOnUse">
<stop stop-color="#E8AC58"/>
<stop offset="0.3246" stop-color="#E09E42"/>
<stop offset="0.5025" stop-color="#CC8C2E"/>
<stop offset="0.6704" stop-color="#BD7F20"/>
<stop offset="0.6763" stop-color="#BE8022"/>
<stop offset="0.8942" stop-color="#DCA658"/>
<stop offset="1" stop-color="#E8B56D"/>
</linearGradient>
<linearGradient id="paint16_linear_807_2893" x1="5.7794" y1="6.69657" x2="46.7343" y2="42.3366" gradientUnits="userSpaceOnUse">
<stop stop-color="#E8AC58"/>
<stop offset="0.3246" stop-color="#E09E42"/>
<stop offset="0.5025" stop-color="#CC8C2E"/>
<stop offset="0.6704" stop-color="#BD7F20"/>
<stop offset="0.6763" stop-color="#BE8022"/>
<stop offset="0.8942" stop-color="#DCA658"/>
<stop offset="1" stop-color="#E8B56D"/>
</linearGradient>
<linearGradient id="paint17_linear_807_2893" x1="8.95519" y1="3.04651" x2="49.9102" y2="38.6866" gradientUnits="userSpaceOnUse">
<stop stop-color="#E8AC58"/>
<stop offset="0.3246" stop-color="#E09E42"/>
<stop offset="0.5025" stop-color="#CC8C2E"/>
<stop offset="0.6704" stop-color="#BD7F20"/>
<stop offset="0.6763" stop-color="#BE8022"/>
<stop offset="0.8942" stop-color="#DCA658"/>
<stop offset="1" stop-color="#E8B56D"/>
</linearGradient>
<linearGradient id="paint18_linear_807_2893" x1="8.70994" y1="3.32819" x2="49.6653" y2="38.9687" gradientUnits="userSpaceOnUse">
<stop stop-color="#E8AC58"/>
<stop offset="0.3246" stop-color="#E09E42"/>
<stop offset="0.5025" stop-color="#CC8C2E"/>
<stop offset="0.6704" stop-color="#BD7F20"/>
<stop offset="0.6763" stop-color="#BE8022"/>
<stop offset="0.8942" stop-color="#DCA658"/>
<stop offset="1" stop-color="#E8B56D"/>
</linearGradient>
<linearGradient id="paint19_linear_807_2893" x1="13.771" y1="-2.48651" x2="54.7256" y2="33.1534" gradientUnits="userSpaceOnUse">
<stop stop-color="#E8AC58"/>
<stop offset="0.3246" stop-color="#E09E42"/>
<stop offset="0.5025" stop-color="#CC8C2E"/>
<stop offset="0.6704" stop-color="#BD7F20"/>
<stop offset="0.6763" stop-color="#BE8022"/>
<stop offset="0.8942" stop-color="#DCA658"/>
<stop offset="1" stop-color="#E8B56D"/>
</linearGradient>
<linearGradient id="paint20_linear_807_2893" x1="11.5637" y1="0.0493627" x2="52.5185" y2="35.6894" gradientUnits="userSpaceOnUse">
<stop stop-color="#E8AC58"/>
<stop offset="0.3246" stop-color="#E09E42"/>
<stop offset="0.5025" stop-color="#CC8C2E"/>
<stop offset="0.6704" stop-color="#BD7F20"/>
<stop offset="0.6763" stop-color="#BE8022"/>
<stop offset="0.8942" stop-color="#DCA658"/>
<stop offset="1" stop-color="#E8B56D"/>
</linearGradient>
<linearGradient id="paint21_linear_807_2893" x1="15.6626" y1="-4.66086" x2="56.6176" y2="30.9792" gradientUnits="userSpaceOnUse">
<stop stop-color="#E8AC58"/>
<stop offset="0.3246" stop-color="#E09E42"/>
<stop offset="0.5025" stop-color="#CC8C2E"/>
<stop offset="0.6704" stop-color="#BD7F20"/>
<stop offset="0.6763" stop-color="#BE8022"/>
<stop offset="0.8942" stop-color="#DCA658"/>
<stop offset="1" stop-color="#E8B56D"/>
</linearGradient>
<linearGradient id="paint22_linear_807_2893" x1="17.4265" y1="-6.68893" x2="58.383" y2="28.9526" gradientUnits="userSpaceOnUse">
<stop stop-color="#E8AC58"/>
<stop offset="0.3246" stop-color="#E09E42"/>
<stop offset="0.5025" stop-color="#CC8C2E"/>
<stop offset="0.6704" stop-color="#BD7F20"/>
<stop offset="0.6763" stop-color="#BE8022"/>
<stop offset="0.8942" stop-color="#DCA658"/>
<stop offset="1" stop-color="#E8B56D"/>
</linearGradient>
<linearGradient id="paint23_linear_807_2893" x1="20.5691" y1="-10.2991" x2="61.5242" y2="25.3411" gradientUnits="userSpaceOnUse">
<stop stop-color="#E8AC58"/>
<stop offset="0.3246" stop-color="#E09E42"/>
<stop offset="0.5025" stop-color="#CC8C2E"/>
<stop offset="0.6704" stop-color="#BD7F20"/>
<stop offset="0.6763" stop-color="#BE8022"/>
<stop offset="0.8942" stop-color="#DCA658"/>
<stop offset="1" stop-color="#E8B56D"/>
</linearGradient>
<linearGradient id="paint24_linear_807_2893" x1="18.1314" y1="-7.4977" x2="59.0863" y2="28.1424" gradientUnits="userSpaceOnUse">
<stop stop-color="#E8AC58"/>
<stop offset="0.3246" stop-color="#E09E42"/>
<stop offset="0.5025" stop-color="#CC8C2E"/>
<stop offset="0.6704" stop-color="#BD7F20"/>
<stop offset="0.6763" stop-color="#BE8022"/>
<stop offset="0.8942" stop-color="#DCA658"/>
<stop offset="1" stop-color="#E8B56D"/>
</linearGradient>
<linearGradient id="paint25_linear_807_2893" x1="20.723" y1="-10.4755" x2="61.6777" y2="25.1644" gradientUnits="userSpaceOnUse">
<stop stop-color="#E8AC58"/>
<stop offset="0.3246" stop-color="#E09E42"/>
<stop offset="0.5025" stop-color="#CC8C2E"/>
<stop offset="0.6704" stop-color="#BD7F20"/>
<stop offset="0.6763" stop-color="#BE8022"/>
<stop offset="0.8942" stop-color="#DCA658"/>
<stop offset="1" stop-color="#E8B56D"/>
</linearGradient>
<linearGradient id="paint26_linear_807_2893" x1="16.7624" y1="-5.92399" x2="57.717" y2="29.7158" gradientUnits="userSpaceOnUse">
<stop stop-color="#E8AC58"/>
<stop offset="0.3246" stop-color="#E09E42"/>
<stop offset="0.5025" stop-color="#CC8C2E"/>
<stop offset="0.6704" stop-color="#BD7F20"/>
<stop offset="0.6763" stop-color="#BE8022"/>
<stop offset="0.8942" stop-color="#DCA658"/>
<stop offset="1" stop-color="#E8B56D"/>
</linearGradient>
<linearGradient id="paint27_linear_807_2893" x1="14.7156" y1="-3.57205" x2="55.6701" y2="32.0678" gradientUnits="userSpaceOnUse">
<stop stop-color="#E8AC58"/>
<stop offset="0.3246" stop-color="#E09E42"/>
<stop offset="0.5025" stop-color="#CC8C2E"/>
<stop offset="0.6704" stop-color="#BD7F20"/>
<stop offset="0.6763" stop-color="#BE8022"/>
<stop offset="0.8942" stop-color="#DCA658"/>
<stop offset="1" stop-color="#E8B56D"/>
</linearGradient>
<linearGradient id="paint28_linear_807_2893" x1="5.40275" y1="7.12837" x2="46.3579" y2="42.7687" gradientUnits="userSpaceOnUse">
<stop stop-color="#E8AC58"/>
<stop offset="0.3246" stop-color="#E09E42"/>
<stop offset="0.5025" stop-color="#CC8C2E"/>
<stop offset="0.6704" stop-color="#BD7F20"/>
<stop offset="0.6763" stop-color="#BE8022"/>
<stop offset="0.8942" stop-color="#DCA658"/>
<stop offset="1" stop-color="#E8B56D"/>
</linearGradient>
<linearGradient id="paint29_linear_807_2893" x1="2.08231" y1="10.9457" x2="43.0366" y2="46.5852" gradientUnits="userSpaceOnUse">
<stop stop-color="#E8AC58"/>
<stop offset="0.3246" stop-color="#E09E42"/>
<stop offset="0.5025" stop-color="#CC8C2E"/>
<stop offset="0.6704" stop-color="#BD7F20"/>
<stop offset="0.6763" stop-color="#BE8022"/>
<stop offset="0.8942" stop-color="#DCA658"/>
<stop offset="1" stop-color="#E8B56D"/>
</linearGradient>
<linearGradient id="paint30_linear_807_2893" x1="15.0397" y1="-3.94474" x2="55.9944" y2="31.6951" gradientUnits="userSpaceOnUse">
<stop stop-color="#E8AC58"/>
<stop offset="0.3246" stop-color="#E09E42"/>
<stop offset="0.5025" stop-color="#CC8C2E"/>
<stop offset="0.6704" stop-color="#BD7F20"/>
<stop offset="0.6763" stop-color="#BE8022"/>
<stop offset="0.8942" stop-color="#DCA658"/>
<stop offset="1" stop-color="#E8B56D"/>
</linearGradient>
<linearGradient id="paint31_linear_807_2893" x1="15.7397" y1="-4.74923" x2="56.6944" y2="30.8906" gradientUnits="userSpaceOnUse">
<stop stop-color="#E8AC58"/>
<stop offset="0.3246" stop-color="#E09E42"/>
<stop offset="0.5025" stop-color="#CC8C2E"/>
<stop offset="0.6704" stop-color="#BD7F20"/>
<stop offset="0.6763" stop-color="#BE8022"/>
<stop offset="0.8942" stop-color="#DCA658"/>
<stop offset="1" stop-color="#E8B56D"/>
</linearGradient>
<linearGradient id="paint32_linear_807_2893" x1="17.3527" y1="-6.60305" x2="58.3084" y2="29.0376" gradientUnits="userSpaceOnUse">
<stop stop-color="#E8AC58"/>
<stop offset="0.3246" stop-color="#E09E42"/>
<stop offset="0.5025" stop-color="#CC8C2E"/>
<stop offset="0.6704" stop-color="#BD7F20"/>
<stop offset="0.6763" stop-color="#BE8022"/>
<stop offset="0.8942" stop-color="#DCA658"/>
<stop offset="1" stop-color="#E8B56D"/>
</linearGradient>
<linearGradient id="paint33_linear_807_2893" x1="-4.33209" y1="18.3172" x2="36.6219" y2="53.9565" gradientUnits="userSpaceOnUse">
<stop stop-color="#E8AC58"/>
<stop offset="0.3246" stop-color="#E09E42"/>
<stop offset="0.5025" stop-color="#CC8C2E"/>
<stop offset="0.6704" stop-color="#BD7F20"/>
<stop offset="0.6763" stop-color="#BE8022"/>
<stop offset="0.8942" stop-color="#DCA658"/>
<stop offset="1" stop-color="#E8B56D"/>
</linearGradient>
<linearGradient id="paint34_linear_807_2893" x1="-4.66613" y1="18.6998" x2="36.2886" y2="54.3397" gradientUnits="userSpaceOnUse">
<stop stop-color="#E8AC58"/>
<stop offset="0.3246" stop-color="#E09E42"/>
<stop offset="0.5025" stop-color="#CC8C2E"/>
<stop offset="0.6704" stop-color="#BD7F20"/>
<stop offset="0.6763" stop-color="#BE8022"/>
<stop offset="0.8942" stop-color="#DCA658"/>
<stop offset="1" stop-color="#E8B56D"/>
</linearGradient>
<linearGradient id="paint35_linear_807_2893" x1="-4.72396" y1="18.7667" x2="36.2304" y2="54.4063" gradientUnits="userSpaceOnUse">
<stop stop-color="#E8AC58"/>
<stop offset="0.3246" stop-color="#E09E42"/>
<stop offset="0.5025" stop-color="#CC8C2E"/>
<stop offset="0.6704" stop-color="#BD7F20"/>
<stop offset="0.6763" stop-color="#BE8022"/>
<stop offset="0.8942" stop-color="#DCA658"/>
<stop offset="1" stop-color="#E8B56D"/>
</linearGradient>
</defs>
</svg>
